<svg id="Group_313" data-name="Group 313" xmlns="http://www.w3.org/2000/svg" width="243.187" height="80" viewBox="0 0 243.187 80">
  <g id="Group_310" data-name="Group 310">
    <g id="Group_309" data-name="Group 309">
      <path id="Path_512" data-name="Path 512" d="M2550.45,142.56c-24.625,26.133-34.351,47.259-41.616,66-18.059-31.384-33.217-41.708-32.715-41.1,3.671,4.415,23.861,25.957,33.365,52.839,2.322-11.51,9.225-27,17.144-41.495,8.165-14.948,15.235-23.226,23.822-36.236Z" transform="translate(-2440.95 -140.291)" fill="#00a85a" fill-rule="evenodd"/>
      <path id="Path_513" data-name="Path 513" d="M341.841,0c-17.153,18.4-35.439,42.158-41.78,66.425C282,35.04,267.007,24.286,267.51,24.891c3.672,4.416,23.687,26.948,33.66,53.169C308.811,45.235,329.1,16.433,341.841,0Z" transform="translate(-267.497)" fill="#a9d046" fill-rule="evenodd"/>
    </g>
    <circle id="Ellipse_38" data-name="Ellipse 38" cx="7.261" cy="7.261" r="7.261" transform="matrix(-0.955, 0.298, -0.298, -0.955, 36.645, 41.363)" fill="#00a85a"/>
    <circle id="Ellipse_39" data-name="Ellipse 39" cx="7.261" cy="7.261" r="7.261" transform="matrix(-0.955, 0.298, -0.298, -0.955, 75.075, 37.679)" fill="#a9d046"/>
  </g>
  <g id="Group_312" data-name="Group 312" transform="translate(122.96 26)">
    <g id="Group_311" data-name="Group 311">
      <path id="Path_510" data-name="Path 510" d="M7.339,5555.4h2.922L12.1,5560.8l1.84-5.406h2.945l-2.784,7.431,2.071,5.223,4.624-12.7h3.451L17.6,5571.685H14.932l-2.83-6.856-2.83,6.856H6.6L0,5555.35H3.405l4.647,12.7,2.025-5.223L7.339,5555.4Zm21.914-.046H32.06l6.212,16.335H35l-1.519-4.072H27.781l-1.5,4.072H23.018Zm3.658,10.031-2.255-6.418-2.347,6.418h4.6Zm7.235,6.3v-16.312h3.175v7.754l6.856-7.776h3.5l-6.258,7.247,6.649,9.088H50.5l-5.085-7.063-2.094,2.186v4.877H40.147Zm20.81-16.335h2.807l6.212,16.335H66.708l-1.518-4.072H59.484l-1.5,4.072H54.722Zm3.658,10.031-2.255-6.418-2.347,6.418Zm10.41-4.164v10.468H71.85v-16.335h2.462l8.512,10.721v-10.7H86v16.313H83.423l-8.4-10.468Zm13.77,10.468v-16.335H94.73a8.866,8.866,0,0,1,3.509.644,7.052,7.052,0,0,1,4.038,4.337,9.73,9.73,0,0,1,.506,3.164,9.557,9.557,0,0,1-.564,3.37,7.2,7.2,0,0,1-1.622,2.577,7.306,7.306,0,0,1-2.542,1.656,8.975,8.975,0,0,1-3.324.587Zm10.79-8.19a6.954,6.954,0,0,0-.322-2.163,4.842,4.842,0,0,0-.943-1.7,4.186,4.186,0,0,0-1.53-1.1,5.154,5.154,0,0,0-2.059-.392H91.97V5568.9H94.73a4.974,4.974,0,0,0,2.082-.414,4.253,4.253,0,0,0,1.519-1.139,5.07,5.07,0,0,0,.932-1.713,6.877,6.877,0,0,0,.322-2.14Zm9.835-8.145h2.807l6.212,16.335h-3.267l-1.519-4.072h-5.706l-1.5,4.072h-3.267Zm3.658,10.031-2.255-6.418-2.347,6.418h4.6Z" transform="translate(0 -5555.35)" fill="#00a85a"/>
    </g>
    <text id="BUSINESS" transform="translate(1.227 37.651)" fill="#a9d046" font-size="17" font-family="Raleway-SemiBold, Raleway" font-weight="600" letter-spacing="0.3em"><tspan x="0" y="0">BUSINESS</tspan></text>
  </g>
</svg>
